<svg width="446" height="300" viewBox="0 0 446 300" fill="none" xmlns="http://www.w3.org/2000/svg">
<rect width="446" height="300" fill="#35F9A0"/>
<rect x="43" y="43" width="183" height="213" fill="white"/>
<rect x="208" y="43" width="201" height="213" fill="#033F59"/>
<path d="M226.687 56.3034L190.508 56L190 116.552L226.179 116.855L226.687 56.3034Z" fill="#35F9A0"/>
<path d="M331.414 97.736L300.899 78.2959L268.363 129.366L298.878 148.806L331.414 97.736Z" fill="#35F9A0"/>
<path d="M382.78 155.706L328.129 181.784L343.71 214.438L398.361 188.359L382.78 155.706Z" fill="#35F9A0"/>
<circle cx="67" cy="65" r="7" fill="#033F59"/>
<circle cx="88" cy="65" r="7" fill="#033F59"/>
<circle cx="109" cy="65" r="7" fill="#033F59"/>
<rect x="190" y="165" width="36" height="66" fill="#37BCF7"/>
<rect x="129" y="135" width="36" height="96" fill="#37BCF7"/>
<rect x="68" y="182" width="36" height="49" fill="#37BCF7"/>
</svg>
