<svg width="446" height="300" viewBox="0 0 446 300" fill="none" xmlns="http://www.w3.org/2000/svg">
<rect width="446" height="300" fill="#033F59"/>
<rect x="42.5" y="42.5" width="198" height="215" fill="#37BCF7" stroke="#37BCF7"/>
<rect x="75" y="70" width="36" height="36" fill="white"/>
<rect x="75" y="132" width="36" height="36" fill="white"/>
<rect x="75" y="194" width="36" height="36" fill="white"/>
<circle cx="369" cy="85" r="15.5" stroke="#37BCF7" stroke-width="5"/>
<circle cx="369" cy="147" r="15.5" stroke="#37BCF7" stroke-width="5"/>
<circle cx="369" cy="209" r="15.5" stroke="#37BCF7" stroke-width="5"/>
<path d="M240.808 233.876L240.808 185.314C219.73 185.314 202.645 168.235 202.645 147.171C202.645 126.104 219.733 109.028 240.808 109.028L240.808 60.4655C192.897 60.4654 154.055 99.2851 154.055 147.173C154.055 195.057 192.894 233.876 240.808 233.876Z" fill="#033F59"/>
<path d="M278.97 147.168C278.97 168.235 261.882 185.311 240.808 185.311L240.808 233.876C288.718 233.876 327.561 195.057 327.561 147.168C327.561 99.2825 288.721 60.4602 240.808 60.4602L240.808 109.026C261.885 109.026 278.97 126.104 278.97 147.168Z" fill="#35F9A0"/>
<path d="M202.643 147.168C202.643 168.235 219.731 185.311 240.806 185.311L240.806 109.023C219.731 109.025 202.643 126.104 202.643 147.168Z" fill="white"/>
<path d="M278.97 147.168C278.97 126.102 261.882 109.026 240.807 109.026L240.807 185.313C261.885 185.313 278.97 168.235 278.97 147.168Z" fill="#37BCF7"/>
</svg>
