<svg width="446" height="300" viewBox="0 0 446 300" fill="none" xmlns="http://www.w3.org/2000/svg">
<rect width="446" height="300" fill="#37BCF7"/>
<rect x="57" y="193" width="77" height="40" fill="#35F9A0"/>
<rect x="57" y="131" width="77" height="40" fill="#35F9A0"/>
<rect x="57" y="66" width="77" height="40" fill="#35F9A0"/>
<path d="M292.154 86.5C292.154 58.0581 269.096 35 240.654 35C212.212 35 189.154 58.0581 189.154 86.5C189.154 114.942 212.212 138 240.654 138V86.5H292.154Z" fill="#033F59"/>
<path d="M242.154 136.478V87.9998H290.632C289.854 114.421 268.576 135.699 242.154 136.478Z" fill="white" stroke="white" stroke-width="3"/>
<path d="M363.282 137.996C363.406 137.996 363.528 138 363.65 138C392.093 138 415.151 114.941 415.151 86.499C415.153 58.0586 392.095 35 363.652 35C335.208 35 312.151 58.0586 312.151 86.501H363.284V137.996H363.282Z" fill="#033F59"/>
<path d="M313.673 88.0008H361.782V136.463C335.532 135.499 314.448 114.3 313.673 88.0008Z" fill="white" stroke="white" stroke-width="3"/>
<path d="M240.654 161.515C212.212 161.515 189.154 184.574 189.154 213.015C189.154 241.457 212.212 264.515 240.654 264.515C269.096 264.515 292.154 241.457 292.154 213.015H240.654V161.515Z" fill="#033F59"/>
<path d="M240.654 161.515V213.015H292.154C292.154 184.574 269.096 161.515 240.654 161.515Z" fill="white"/>
<path d="M363.65 161.515C363.526 161.515 363.404 161.519 363.282 161.519V213.015H312.151C312.151 241.457 335.209 264.515 363.65 264.515C392.091 264.515 415.149 241.457 415.149 213.015C415.149 184.574 392.091 161.515 363.65 161.515Z" fill="#033F59"/>
<path d="M361.78 211.518H313.671C314.446 185.219 335.531 164.019 361.78 163.054V211.518Z" fill="white" stroke="white" stroke-width="3"/>
</svg>
