<svg width="120" height="120" viewBox="0 0 120 120" fill="none" xmlns="http://www.w3.org/2000/svg">
<path d="M91.5996 51.3C93.9996 46.5 95.3996 41.1 95.3996 35.4C95.3996 15.8 79.4996 0 59.9996 0C40.4996 0 24.5996 15.8 24.5996 35.4C24.5996 41.1 25.9996 46.5 28.3996 51.3L28.4996 51.4C28.8996 52.2 59.9996 108.6 59.9996 108.6C59.9996 108.6 91.1996 52.2 91.4996 51.4L91.5996 51.3Z" fill="#35F9A0"/>
<path d="M59.9996 61.5C74.4142 61.5 86.0996 49.8147 86.0996 35.4001C86.0996 20.9854 74.4142 9.30005 59.9996 9.30005C45.585 9.30005 33.8996 20.9854 33.8996 35.4001C33.8996 49.8147 45.585 61.5 59.9996 61.5Z" fill="white"/>
<path d="M66.8996 21.5999H59.9996C56.1996 21.5999 53.0996 24.6999 53.0996 28.4999C53.0996 32.2999 56.1996 35.3999 59.9996 35.3999C63.7996 35.3999 66.8996 38.4999 66.8996 42.2999C66.8996 46.0999 63.7996 49.1999 59.9996 49.1999H53.0996" stroke="#033F59" stroke-width="5" stroke-miterlimit="10"/>
<path d="M60 21.6V13.7" stroke="#033F59" stroke-width="5" stroke-miterlimit="10"/>
<path d="M60 56.9999V49.0999" stroke="#033F59" stroke-width="5" stroke-miterlimit="10"/>
<path d="M0 117.5H120" stroke="#033F59" stroke-width="5" stroke-miterlimit="10"/>
</svg>
