<svg width="120" height="120" viewBox="0 0 120 120" fill="none" xmlns="http://www.w3.org/2000/svg">
<path d="M22.5 66.6V42C22.5 38.7 19.8 35.9 16.4 35.9C13.1 35.9 10.3 38.6 10.3 42V72.2C10.3 74.7 11.1 77 12.6 79L29.3 101.2V112.8M52.4 112.8V92.8C52.4 87.1 50.3 81.6 46.4 77.5L33 62.8C30.8 60.4 27 60.2 24.6 62.4L24.4 62.6C22 64.8 21.8 68.6 24 71L36 84" stroke="#033F59" stroke-width="5" stroke-miterlimit="10"/>
<path d="M97.5 66.6V42C97.5 38.7 100.2 35.9 103.6 35.9C106.9 35.9 109.7 38.6 109.7 42V72.2C109.7 74.7 108.9 77 107.4 79L90.7 101.2V112.8M67.5 112.8V92.8C67.5 87.1 69.6 81.6 73.5 77.5L87 62.8C89.2 60.4 93 60.2 95.4 62.4L95.6 62.6C98 64.8 98.2 68.6 96 71L84 84" stroke="#033F59" stroke-width="5" stroke-miterlimit="10"/>
<path d="M78.3996 7.09998H41.5996C35.3996 7.09998 30.3996 12.1 30.3996 18.3V40.2C30.3996 46.4 35.3996 51.4 41.5996 51.4H47.6996L57.9996 61.7C59.0996 62.8 60.8996 62.8 61.9996 61.7L72.2996 51.4H78.3996C84.5996 51.4 89.5996 46.4 89.5996 40.2V18.3C89.5996 12.1 84.5996 7.09998 78.3996 7.09998Z" fill="#35F9A0"/>
<path d="M71.5996 33.9C73.8087 33.9 75.5996 32.1092 75.5996 29.9C75.5996 27.6909 73.8087 25.9 71.5996 25.9C69.3905 25.9 67.5996 27.6909 67.5996 29.9C67.5996 32.1092 69.3905 33.9 71.5996 33.9Z" fill="white"/>
<path d="M59.9992 33.9C62.2083 33.9 63.9992 32.1092 63.9992 29.9C63.9992 27.6909 62.2083 25.9 59.9992 25.9C57.7901 25.9 55.9992 27.6909 55.9992 29.9C55.9992 32.1092 57.7901 33.9 59.9992 33.9Z" fill="white"/>
<path d="M48.3996 33.9C50.6087 33.9 52.3996 32.1092 52.3996 29.9C52.3996 27.6909 50.6087 25.9 48.3996 25.9C46.1905 25.9 44.3996 27.6909 44.3996 29.9C44.3996 32.1092 46.1905 33.9 48.3996 33.9Z" fill="white"/>
</svg>
