<svg width="159" height="22" viewBox="0 0 159 22" fill="none" xmlns="http://www.w3.org/2000/svg">
<g clip-path="url(#clip0_1002_1309)">
<path d="M61.169 12.383V16.3283C61.169 19.6817 59.0248 21.5 54.8951 21.5C51.1814 21.5 49.1316 19.6046 49.1316 17.0959C49.1316 14.5872 50.8212 12.8075 54.5606 12.8075H57.9913V12.1257C57.9913 10.1573 57.0693 9.364 55.3797 9.364C54.6874 9.31759 53.9991 9.5003 53.4209 9.88393C52.8427 10.2676 52.4069 10.8308 52.1806 11.4867L49.4661 10.0544C50.7526 7.41709 52.588 6.39218 55.4312 6.39218C59.1191 6.39218 61.169 8.10751 61.169 12.383ZM57.9913 16.3283V15.3548H54.5606C53.1026 15.3548 52.3093 15.8651 52.3093 17.0187C52.3093 17.9664 53.0511 18.6311 55.1481 18.6311C56.7906 18.6311 57.9913 18.0436 57.9913 16.3283Z" fill="#37BCF7"/>
<path d="M76.3325 13.9439C76.3325 18.8112 73.8882 21.5129 69.84 21.5129C65.4101 21.5129 63.2574 18.8241 63.2574 13.9568V0.5H66.435V8.05606C67.4085 6.92822 68.8151 6.39218 70.5304 6.39218C74.094 6.39218 76.3325 9.07668 76.3325 13.9439ZM73.1334 13.9439C73.1334 10.8478 72.0056 9.364 69.7499 9.364C67.4943 9.364 66.4222 10.7706 66.4222 13.0991V13.9568C66.4222 17.0573 67.55 18.541 69.7757 18.541C72.0013 18.541 73.1463 17.0444 73.1463 13.9439H73.1334Z" fill="#37BCF7"/>
<path d="M88.5243 7.87594L86.5259 10.2088C86.2608 9.92768 85.9392 9.70591 85.5822 9.55808C85.2252 9.41025 84.8409 9.33972 84.4546 9.35113C82.8894 9.35113 81.6115 10.2431 81.6115 12.3187V21.247H78.4338V6.64519H81.3542V8.03032C81.8173 7.48389 82.4004 7.05177 83.0579 6.76763C83.7155 6.48349 84.4297 6.355 85.1451 6.39218C85.7816 6.38401 86.4125 6.51219 86.9954 6.76812C87.5782 7.02405 88.0995 7.40179 88.5243 7.87594Z" fill="#37BCF7"/>
<path d="M88.4214 13.9439C88.4214 9.05524 90.7757 6.39218 95.0812 6.39218C99.3866 6.39218 101.737 9.07668 101.737 13.9439C101.737 18.8112 99.3824 21.5129 95.0812 21.5129C90.7799 21.5129 88.4214 18.8112 88.4214 13.9439ZM98.5376 13.9439C98.5376 10.8478 97.4355 9.364 95.0812 9.364C92.7269 9.364 91.6205 10.8478 91.6205 13.9439C91.6205 17.0401 92.7226 18.511 95.0812 18.511C97.4397 18.511 98.5376 17.0444 98.5376 13.9439Z" fill="#37BCF7"/>
<path d="M114.928 12.383V16.3283C114.928 19.6817 112.783 21.5 108.654 21.5C104.957 21.5129 102.92 19.6046 102.92 17.0959C102.92 14.5872 104.61 12.8075 108.349 12.8075H111.78V12.1257C111.78 10.1573 110.858 9.364 109.164 9.364C108.472 9.31759 107.783 9.5003 107.205 9.88393C106.627 10.2676 106.191 10.8308 105.965 11.4867L103.25 10.0544C104.537 7.41709 106.372 6.39218 109.216 6.39218C112.895 6.39218 114.928 8.10751 114.928 12.383ZM111.754 16.3283V15.3548H108.324C106.866 15.3548 106.072 15.8651 106.072 17.0187C106.072 17.9664 106.814 18.6311 108.915 18.6311C110.566 18.6311 111.771 18.0436 111.771 16.3283H111.754Z" fill="#37BCF7"/>
<path d="M129.675 0.5V13.9439C129.675 18.8112 127.531 21.5 123.093 21.5C119.044 21.5 116.587 18.8112 116.587 13.9439C116.587 9.07668 118.997 6.39218 122.557 6.39218C124.246 6.39218 125.558 6.90249 126.498 7.95313V0.5H129.675ZM126.506 13.9439V13.0863C126.506 10.7577 125.434 9.35113 123.178 9.35113C120.923 9.35113 119.799 10.8349 119.799 13.9311C119.799 17.0273 120.931 18.511 123.144 18.511C125.357 18.511 126.506 17.0444 126.506 13.9439Z" fill="#37BCF7"/>
<path d="M138.265 18.6826C138.939 18.7191 139.609 18.5606 140.196 18.2259C140.782 17.8913 141.26 17.3947 141.571 16.7957L144.144 18.0822C142.836 20.4622 140.761 21.4871 138.175 21.4871C134.002 21.4871 131.519 19.0556 131.519 13.9311C131.519 8.65642 134.131 6.37931 138.123 6.37931C142.116 6.37931 144.324 8.68215 144.324 13.7553V14.956H134.654C134.886 17.5847 136.013 18.6826 138.265 18.6826ZM134.68 12.4087H141.288C141.031 10.2646 140.057 9.20962 138.007 9.20962C135.958 9.20962 134.988 10.2345 134.68 12.4087Z" fill="#37BCF7"/>
<path d="M158.493 12.666V21.2427H155.315V12.666C155.315 10.5905 154.187 9.364 152.369 9.364C150.551 9.364 149.423 10.5905 149.423 12.666V21.2427H146.232V12.666C146.232 8.56637 148.432 6.39218 152.352 6.39218C156.271 6.39218 158.493 8.56637 158.493 12.666Z" fill="#37BCF7"/>
<path d="M9.98326 21.3628C8.33736 21.3589 6.69476 21.2154 5.07311 20.9339L0 20.0248L0.566061 16.7957L5.63917 17.6962C7.07673 17.9463 8.53271 18.0754 9.99183 18.0822C16.329 18.1088 22.4472 15.7656 27.1452 11.5125L30.9704 8.08179L33.1617 10.5133L29.3365 13.944C24.0371 18.7451 17.1341 21.3913 9.98326 21.3628Z" fill="#37BCF7"/>
<path d="M5.82096 8.07654L3.63241 10.5089L7.7033 14.1718L9.89185 11.7394L5.82096 8.07654Z" fill="#37BCF7"/>
<path d="M14.9051 3.46467L11.7599 4.36656L13.2693 9.63063L16.4146 8.72874L14.9051 3.46467Z" fill="#37BCF7"/>
<path d="M21.9088 3.46411L20.4003 8.72845L23.5457 9.62978L25.0542 4.36545L21.9088 3.46411Z" fill="#37BCF7"/>
<path d="M36.2491 16.7959L30.8562 17.7478L31.4249 20.97L36.8178 20.0181L36.2491 16.7959Z" fill="#37BCF7"/>
</g>
<defs>
<clipPath id="clip0_1002_1309">
<rect width="158.493" height="21" fill="white" transform="translate(0 0.5)"/>
</clipPath>
</defs>
</svg>
