<svg width="446" height="300" viewBox="0 0 446 300" fill="none" xmlns="http://www.w3.org/2000/svg">
<g clip-path="url(#clip0_1033_3027)">
<path d="M446 0H0V300H446V0Z" fill="#35F9A0"/>
<path d="M226 43H43V256H226V43Z" fill="white"/>
<path d="M409 43H200.9V256H409V43Z" fill="#033F59"/>
<path d="M93.9 43H43L150 150L44 256H94.9L200.9 150L93.9 43Z" fill="#37BCF7"/>
<path d="M243.3 107.6L200.9 150V200.9L268.8 133L391.8 256H409V222.3L294.2 107.6L268.8 82.1L243.3 107.6Z" fill="#37BCF7"/>
<path d="M388 71C391.866 71 395 67.866 395 64C395 60.134 391.866 57 388 57C384.134 57 381 60.134 381 64C381 67.866 384.134 71 388 71Z" fill="white"/>
<path d="M388 92C391.866 92 395 88.866 395 85C395 81.134 391.866 78 388 78C384.134 78 381 81.134 381 85C381 88.866 384.134 92 388 92Z" fill="white"/>
<path d="M388 113C391.866 113 395 109.866 395 106C395 102.134 391.866 99 388 99C384.134 99 381 102.134 381 106C381 109.866 384.134 113 388 113Z" fill="white"/>
<path d="M200.9 200.9L145.8 256H200.9V200.9Z" fill="#37BCF7"/>
<path d="M43 193C66.7482 193 86 173.748 86 150C86 126.252 66.7482 107 43 107C19.2518 107 0 126.252 0 150C0 173.748 19.2518 193 43 193Z" fill="#35F9A0"/>
<path d="M269 299C292.748 299 312 279.748 312 256C312 232.252 292.748 213 269 213C245.252 213 226 232.252 226 256C226 279.748 245.252 299 269 299Z" fill="#35F9A0"/>
</g>
<defs>
<clipPath id="clip0_1033_3027">
<rect width="446" height="300" fill="white"/>
</clipPath>
</defs>
</svg>
