<svg width="446" height="300" viewBox="0 0 446 300" fill="none" xmlns="http://www.w3.org/2000/svg">
<g clip-path="url(#clip0_1033_1201)">
<path d="M446 0H0V300H446V0Z" fill="#37BCF7" stroke="#37BCF7"/>
<path d="M446 150H0V300H446V150Z" fill="#033F59"/>
<rect x="223" y="43" width="186" height="213" fill="white"/>
<rect x="223" y="43" width="186" height="107" fill="#35F9A0"/>
<path d="M83 43H63H43V103H63H83H103V43H83Z" fill="white"/>
<path d="M116.123 150H176.033C176.033 123.99 197.113 102.91 223 102.91C249.01 102.91 269.966 123.99 269.966 150H329.876C329.876 90.9527 282.047 43 223 43C163.953 43 116.123 90.9527 116.123 150Z" fill="#033F59"/>
<path d="M223 197.09C196.989 197.09 176.033 176.01 176.033 150H116.123C116.123 209.047 163.953 257 223 257C282.047 257 329.876 209.17 329.876 150H269.966C269.966 176.01 249.01 197.09 223 197.09Z" fill="#35F9A0"/>
<path d="M222.999 102.91C196.989 102.91 176.032 123.99 176.032 150H270.089C269.965 123.99 249.009 102.91 222.999 102.91Z" fill="white"/>
<path d="M223 197.09C249.01 197.09 269.967 176.01 269.967 150H175.91C176.033 176.01 196.99 197.09 223 197.09Z" fill="#37BCF7"/>
</g>
<defs>
<clipPath id="clip0_1033_1201">
<rect width="446" height="300" fill="white"/>
</clipPath>
</defs>
</svg>
