<svg width="100" height="49" viewBox="0 0 100 49" fill="none" xmlns="http://www.w3.org/2000/svg">
<path d="M27.1139 48.7679C22.644 48.7515 18.1833 48.3619 13.7782 47.6032L0 45.134L1.53739 36.3872L15.3156 38.8098C19.2193 39.4966 23.1737 39.8551 27.1372 39.8813C44.3485 39.9536 60.9652 33.5894 73.7247 22.0383L84.1137 12.7208L90.0652 19.3246L79.6762 28.6421C65.2798 41.6732 46.5319 48.8517 27.1139 48.7679Z" fill="#033F59"/>
<path d="M15.8218 12.6888L9.87784 19.2949L20.9341 29.2431L26.8781 22.637L15.8218 12.6888Z" fill="#033F59"/>
<path d="M40.4877 0.166647L31.9454 2.61611L36.045 16.913L44.5873 14.4635L40.4877 0.166647Z" fill="#033F59"/>
<path d="M59.5115 0.1521L55.4145 14.4497L63.9572 16.8977L68.0543 2.60008L59.5115 0.1521Z" fill="#033F59"/>
<path d="M98.4489 36.3705L83.8023 38.9557L85.3469 47.707L99.9936 45.1218L98.4489 36.3705Z" fill="#033F59"/>
</svg>
